<svg id="Layer_1" data-name="Layer 1" xmlns="http://www.w3.org/2000/svg" viewBox="0 0 708.56 167.78"><defs><style>.cls-1{fill:#333;}</style></defs><path class="cls-1" d="M129.26,333.54c-24.68,0-49.37-.2-74,.12-7.18.09-9.31-2.53-9.28-9.51.25-49.12.16-98.24.19-147.36,0-10.86,0-10.9,10.49-10.9q73.68,0,147.36,0c9.76,0,9.94.19,9.95,10q0,73.69,0,147.37c0,9.79-.52,10.3-10.6,10.31Q166.29,333.58,129.26,333.54ZM57,314.82c-.43,4.73,0,8.39,6.28,8.34,5.43,0,8.85-.25,9.66-7.5,3.86-34.72,18.91-64,44.82-87.58,22.66-20.66,49.34-32.28,79.72-35.49,3.91-.41,5.66-1.73,5.91-5.8.57-9.1-1.21-10.81-10.53-9.6-31.47,4.07-59.43,16.18-83.31,37.06C79,240.92,61.84,274.74,57,314.82Zm26.36.06c.79,2.95-1.84,6.44,2.38,8,7.1,2.65,12.52-.66,13.56-8.23,2.07-15.12,6.77-29.36,15.12-42.15,19.63-30.09,46.42-49.3,82.85-53.37,3.77-.42,5.73-1.82,6.08-5.85.77-8.73-1-10.71-9.85-9.65a117.74,117.74,0,0,0-58.31,23.57C105.92,249.46,87.91,278.38,83.31,314.88Zm119.87-77.71c1.18-6.57-1.34-8.57-8.16-7.28-5.59,1.05-11.24,2-16.49,4-38.55,14.76-62.37,41.89-69,83.2-.35,2.22-.88,4.36,1.9,5.63,6.37,2.91,12.89-.34,14.32-7.26,7.64-36.89,33.62-62.61,70.65-69.66C201.44,244.82,204,242.59,203.18,237.17ZM147.26,176.5c-6.08,0-12.19.37-18.24-.09-8.28-.61-15.2,1.7-22,6.54a179,179,0,0,0-38.9,37c-4.4,5.74-10.61,11-11.08,18.77-.57,9.77-.14,19.59-.14,29.38C75.6,226.44,105.71,196.49,147.26,176.5ZM143.66,323c5.52,1,7.65-1.72,9.07-6.91,6.23-22.8,21.28-37,43.84-43.54,6.24-1.8,8.46-5.8,6.57-13-1.69-6.5-6.73-2.78-9.71-2.2C166.37,262.56,142,288,136.67,315.22,135.35,322,137.36,323.94,143.66,323Zm59.55-32.16c0-8.26-1-9.26-8-6.67-15.67,5.74-26.61,16.33-31.59,32.55-.62,2-1.89,4.25.88,5.83,4,2.29,12.65,0,14.62-4.25A35.49,35.49,0,0,1,197.54,300C202.21,298,203.84,294.88,203.21,290.8Zm-107.58-113c-23.47-5-42.54,14.13-37.63,37.31C69.37,201.5,81.17,189.12,95.63,177.77Z" transform="translate(-45.93 -165.88)"/><path class="cls-1" d="M754.5,306.92H722.7c8.88-2.86,6.71-10.11,6.74-16.34.06-14.31-.28-28.63.15-42.93.19-6.41-2.56-9-8.36-9.59-1.22-.12-2.45-.25-3.68-.31-15.33-.73-17,.88-17,15.89,0,13.32.12,26.65-.06,40-.07,5.61-.43,11,7,13.12h-32c7.64-2.6,7-8.7,7-14.82-.16-14.8-.24-29.62,0-44.42.11-5.67-.33-10.3-7.9-10.86.23-.7.46-1.39.7-2.09,7.82,0,15.68-.41,23.46.2a41.36,41.36,0,0,0,10.19-.05,41.07,41.07,0,0,1,19,1.42C742,240.5,747.57,248,747.62,262.72c0,9.87.11,19.74,0,29.61C747.49,298.26,746.79,304.28,754.5,306.92Z" transform="translate(-45.93 -165.88)"/><path class="cls-1" d="M310.14,276.5c5.24-15,10-28.68,14.79-42.36,1.87-5.36,3.67-10.75,5.57-16.1s6.55-11.8-6.44-11.21c8.24-2.81,15-2.35,22.42-.46-10.55.13-11.18,8.24-13.54,15q-13.59,38.79-27.26,77.54a31.44,31.44,0,0,1-1.22,3.5c-.94,1.9-1.22,4.61-4.12,4.59s-3.45-2.46-4.19-4.53q-5-13.95-9.83-27.95-9.42-26.91-18.82-53.83C263.77,210,263.76,210,254.5,206c13.1-2,26.25-1.37,39.54-.9a11.79,11.79,0,0,1-.35,2.07c-7.17.45-7.63,3.63-5.27,9.87,6.73,17.77,12.74,35.82,19.07,53.75C308,272.3,308.84,273.72,310.14,276.5Z" transform="translate(-45.93 -165.88)"/><path class="cls-1" d="M627.84,309c-21.39-.26-37.71-16.9-37.55-38.3s17.08-38.15,38.11-37.89c21.65.27,38.32,17.32,38,38.89C666.08,293,649.29,309.2,627.84,309Zm17.53-37.65h0V252.78c0-13.18-3.62-16.76-17.08-16.42A57.6,57.6,0,0,0,618.13,238c-4.77,1-6.94,3.83-6.88,8.93.19,15.81.26,31.62,0,47.43-.12,6.18,2.88,9.31,8.3,10.35a40,40,0,0,0,19.06-.64c4.69-1.39,7-4.05,6.85-9.09C645.23,287.11,645.37,279.21,645.37,271.3Z" transform="translate(-45.93 -165.88)"/><path class="cls-1" d="M457.6,243.6c.93-3.09,1.54-5.16,2.19-7.22,0-.14.4-.19,1.22-.56,2,6.48.81,12.8.72,19.74-1.47-.69-2.5-.85-2.61-1.26-5.57-20.44-36.3-22.47-49.43-11.84-1.87,1.52-4.67,2.62-4.24,5.55.38,2.59,3.21,2.82,5.18,3.61,14,5.6,28.06,10.94,42,16.66,13.63,5.59,16.46,19.82,6.3,30.57-13,13.77-42.38,13.71-55.41-.11-3.57-3.78-4.8-7-4.83-12.43,2.28-.67,2.34,1.25,2.7,2.49,5.48,18.64,40.62,23,55.2,7.36,3.17-3.4,2.84-5.73-1.89-7.54-14.29-5.48-28.45-11.31-42.71-16.88-7.4-2.89-13.09-7.21-13.55-15.81-.43-7.87,5.34-16.09,13.64-19.44C428.29,230,443.45,231.61,457.6,243.6Z" transform="translate(-45.93 -165.88)"/><path class="cls-1" d="M532.94,244c2.25-2.49-.4-6.2,2.6-8.17,2.55,5.22,2.69,12.88.39,19.28-1.21.24-1.78-.54-2.23-1.44a32.74,32.74,0,0,0-49-11.3c-6,4.55-5.82,6.5,1.07,9.26,13.3,5.33,26.59,10.66,40,15.73,7.72,2.91,13.78,7.33,14.29,16.1.48,8.31-3.75,14.51-10.65,19.09-15.51,10.31-39.57,8.27-51.25-4.53-3.17-3.47-5.71-7.21-4.33-14.12,2.46,4.56,3.77,7.93,5.86,10.7,10.75,14.24,40.09,14.89,51.91,1.44,3.54-4,2.73-5.84-2.17-7.68-14.1-5.28-28-11.08-42.06-16.5-8-3.1-14-8-13.91-17.16.08-9.28,6.24-14.85,14.14-18.22C504.17,229.46,519.38,232.26,532.94,244Z" transform="translate(-45.93 -165.88)"/><path class="cls-1" d="M388.71,307h-32c8.89-2.95,6.8-10.16,6.82-16.43q0-21.81,0-43.64c0-7.83,0-7.83-6.92-11.49,7.64-1.54,15.44-2.1,23.09-.27,3,.72,2.11,4.64,2.12,7.24.07,17.26,0,34.52.05,51.78,0,5.16-1.43,11.26,8.87,10.32Z" transform="translate(-45.93 -165.88)"/><path class="cls-1" d="M581.14,306.94H549.26c7.45-2.62,7.11-8.32,7-14.35-.23-15-.06-30.09-.08-45.14,0-8.23,0-8.23-9.09-12.18,9.45-1.6,17.1-1.68,24.59-.31,3.66.67,2.66,4.84,2.67,7.65q.15,25.17,0,50.33C574.34,298.65,573.58,304.49,581.14,306.94Z" transform="translate(-45.93 -165.88)"/><path class="cls-1" d="M381.55,210.58c-.8,5.08-3.16,8.95-8.83,9-5.26.07-8.32-3.33-8.59-8.28-.31-5.54,3.13-8.89,8.54-9C377.82,202.16,380.57,205.57,381.55,210.58Z" transform="translate(-45.93 -165.88)"/><path class="cls-1" d="M574,210.77c-.6,5.47-3.67,8.74-9.05,8.76s-8.13-3.72-8.21-8.58c-.09-5.44,3.39-8.78,8.84-8.67C570.64,202.39,573.36,205.75,574,210.77Z" transform="translate(-45.93 -165.88)"/></svg>